# xmcd
#
# Track frame offsets:
#	150
#	11974
#	21547
#	31487
#	41462
#	50863
#	62287
#	72136
#	83865
#	98473
#	106675
#	116572
#	126388
#	135719
#	148148
#	160035
#	168255
#	177727
#	187065
#	196268
#
# Disc length: 2760 seconds
#
# Revision: 0
# Processed by: cddbd v1.5.2PL0 Copyright (c) Steve Scherf et al.
# Submitted via: EZCDAudioConverter 2.0.3.1
#
DISCID=1d0ac614
DTITLE=Country and Western Nuggets CD 8
DYEAR=1900
DGENRE=
TTITLE0=Wilson Smiley - Running Bear
TTITLE1=Wright Buddy - That's All You Ever Get From Me
TTITLE2=Horton Johnny - Woman I Need
TTITLE3=Walker Wayne - After The Boy Gets The Girl
TTITLE4=Chris Billie - Lane Of Heartaches
TTITLE5=Wayne Luther - Linda
TTITLE6=Murphy Jimmy - Sixteen Tons Of Rick And Roll
TTITLE7=Crockett Howard - Deep Elm Dave
TTITLE8=Robbins Marty - Tennessee Toddy
TTITLE9=Winters Don - That's All I Need
TTITLE10=Maddox Brothers - Ugly And Slouchy
TTITLE11=James Sonny - Dream Big
TTITLE12=Gibson Don - I Ain't A Studying You Baby
TTITLE13=Barnes Benny - King For A Day
TTITLE14=Robison Carson - Rockin' And Rollin' With Grandmaw
TTITLE15=Gallion Bob - Froggy Went A Courtin'
TTITLE16=Willis Hal - That's The Way It Goes
TTITLE17=Riley Bob - Midnight Line
TTITLE18=Murphy Jimmy - My Gal Dottie
TTITLE19=Endsley Melvin - You Made It Sound So Easy
EXTD=
EXTT0=
EXTT1=
EXTT2=
EXTT3=
EXTT4=
EXTT5=
EXTT6=
EXTT7=
EXTT8=
EXTT9=
EXTT10=
EXTT11=
EXTT12=
EXTT13=
EXTT14=
EXTT15=
EXTT16=
EXTT17=
EXTT18=
EXTT19=
PLAYORDER=
